<?xml version="1.0" encoding="UTF-8"?>
<!DOCTYPE svg PUBLIC "-//W3C//DTD SVG 1.1//EN" "http://www.w3.org/Graphics/SVG/1.1/DTD/svg11.dtd">
<svg xmlns="http://www.w3.org/2000/svg" version="1.1" width="600px" height="600px" style="shape-rendering:geometricPrecision; text-rendering:geometricPrecision; image-rendering:optimizeQuality; fill-rule:evenodd; clip-rule:evenodd" xmlns:xlink="http://www.w3.org/1999/xlink">
<g><path style="opacity:1" fill="#000000" d="M 89.5,37.5 C 226.5,37.3333 363.5,37.5 500.5,38C 525.624,37.8142 544.457,48.6475 557,70.5C 560.64,78.0882 562.64,86.0882 563,94.5C 563.667,192.5 563.667,290.5 563,388.5C 561.581,389.46 560.081,390.293 558.5,391C 547.441,391.906 536.441,391.573 525.5,390C 524.107,388.829 523.273,387.329 523,385.5C 522.5,377.841 522.334,370.174 522.5,362.5C 504.83,362.667 487.164,362.5 469.5,362C 468.069,361.535 466.903,360.701 466,359.5C 465.685,356.628 465.185,353.795 464.5,351C 464.691,344.765 465.191,338.599 466,332.5C 466.903,331.299 468.069,330.465 469.5,330C 487.164,329.5 504.83,329.333 522.5,329.5C 521.738,250.171 521.238,170.838 521,91.5C 514.322,80.6633 504.655,76.3299 492,78.5C 358.503,79.3065 225.003,79.8065 91.5,80C 86.2558,83.2483 82.4225,87.7483 80,93.5C 78.8841,112.481 78.2175,131.481 78,150.5C 65.2421,151.655 52.4088,151.822 39.5,151C 39,150.5 38.5,150 38,149.5C 37.3333,129.833 37.3333,110.167 38,90.5C 44.2386,62.0961 61.4053,44.4294 89.5,37.5 Z"/></g>
<g><path style="opacity:1" fill="#000000" d="M 114.5,136.5 C 125.505,136.333 136.505,136.5 147.5,137C 148.416,137.374 149.25,137.874 150,138.5C 151.353,151.458 151.853,164.458 151.5,177.5C 172.503,177.333 193.503,177.5 214.5,178C 215.653,188.757 215.82,199.59 215,210.5C 214.25,211.126 213.416,211.626 212.5,212C 192.169,212.5 171.836,212.667 151.5,212.5C 153.334,261.36 174.668,298.86 215.5,325C 218.219,327.382 220.553,330.049 222.5,333C 216.472,342.706 209.472,351.706 201.5,360C 199.833,360.667 198.167,360.667 196.5,360C 168.181,343.348 146.348,320.515 131,291.5C 119.026,312.157 104.026,330.49 86,346.5C 83.1635,351.172 81.1635,356.172 80,361.5C 78.2763,410.164 78.2763,458.831 80,507.5C 82.0275,512.864 85.5275,517.031 90.5,520C 163.787,521.708 237.12,522.541 310.5,522.5C 376.169,522.337 441.836,521.837 507.5,521C 513.583,518.585 518.083,514.418 521,508.5C 522.706,490.842 522.873,473.176 521.5,455.5C 470.83,455.367 420.164,454.867 369.5,454C 357.044,452.211 349.877,445.044 348,432.5C 347.333,411.833 347.333,391.167 348,370.5C 348.465,369.069 349.299,367.903 350.5,367C 362.167,366.333 373.833,366.333 385.5,367C 386.308,367.308 386.975,367.808 387.5,368.5C 388.262,384.472 389.096,400.472 390,416.5C 390.5,417 391,417.5 391.5,418C 442.827,419.091 494.16,419.758 545.5,420C 559.701,425.544 565.867,436.044 564,451.5C 564.435,473.197 563.768,494.864 562,516.5C 560.693,523.426 558.026,529.76 554,535.5C 548.866,541.635 543.366,547.469 537.5,553C 527.845,559.552 517.178,562.885 505.5,563C 365.833,563.667 226.167,563.667 86.5,563C 61.9524,555.786 46.1191,539.952 39,515.5C 37.8829,487.187 37.3829,458.854 37.5,430.5C 37.3784,402.478 37.8784,374.478 39,346.5C 41.2563,337.317 45.5896,329.317 52,322.5C 66.7808,310.056 79.7808,296.056 91,280.5C 102.977,259.405 109.143,236.738 109.5,212.5C 87.1642,212.667 64.8308,212.5 42.5,212C 41.6667,211.167 40.8333,210.333 40,209.5C 39.3333,199.833 39.3333,190.167 40,180.5C 40.5,179.333 41.3333,178.5 42.5,178C 64.8333,177.667 87.1667,177.333 109.5,177C 110.323,164.242 110.823,151.409 111,138.5C 112.302,137.915 113.469,137.249 114.5,136.5 Z"/></g>
<g><path style="opacity:1" fill="#000000" d="M 242.5,136.5 C 254.871,136.227 267.204,136.56 279.5,137.5C 280.481,173.469 280.814,209.469 280.5,245.5C 292.838,245.333 305.171,245.5 317.5,246C 319.333,246.5 320.5,247.667 321,249.5C 323.073,260.093 322.906,270.593 320.5,281C 307.171,281.5 293.837,281.667 280.5,281.5C 280.667,338.501 280.5,395.501 280,452.5C 273.907,453.811 267.574,454.478 261,454.5C 254.453,454.481 247.953,454.148 241.5,453.5C 240.672,448.868 240.172,444.202 240,439.5C 239.333,339.5 239.333,239.5 240,139.5C 241.045,138.627 241.878,137.627 242.5,136.5 Z"/></g>
<g><path style="opacity:1" fill="#000000" d="M 402.5,144.5 C 427.792,141.653 450.459,147.82 470.5,163C 489.25,182.409 494.083,204.909 485,230.5C 472.623,253.951 453.123,266.785 426.5,269C 402.123,272.064 380.123,266.398 360.5,252C 339.054,230.759 334.554,206.259 347,178.5C 360.469,158.853 378.969,147.52 402.5,144.5 Z M 406.5,178.5 C 419.025,176.969 430.358,179.802 440.5,187C 448.073,195.059 450.573,204.559 448,215.5C 444.139,226.022 436.639,232.189 425.5,234C 413.576,235.899 402.243,234.232 391.5,229C 381.271,219.854 378.438,208.688 383,195.5C 384.776,192.059 386.943,188.892 389.5,186C 395.257,183.45 400.923,180.95 406.5,178.5 Z"/></g>
<g><path style="opacity:1" fill="#000000" d="M 493.5,275.5 C 496.518,275.335 499.518,275.502 502.5,276C 503.126,276.75 503.626,277.584 504,278.5C 506.315,287.388 507.649,296.388 508,305.5C 507.167,306.333 506.333,307.167 505.5,308C 500.543,309.489 495.543,310.822 490.5,312C 472.592,315.091 454.592,317.591 436.5,319.5C 435.68,336.789 435.18,354.123 435,371.5C 434.5,372.667 433.667,373.5 432.5,374C 420.833,374.667 409.167,374.667 397.5,374C 396.692,373.692 396.025,373.192 395.5,372.5C 394.514,355.214 394.181,337.881 394.5,320.5C 371.476,320.859 348.476,320.359 325.5,319C 323.059,315.989 321.893,312.489 322,308.5C 321.5,301.174 321.334,293.841 321.5,286.5C 360.169,285.924 398.835,285.091 437.5,284C 450.86,282.931 464.193,281.597 477.5,280C 482.975,278.548 488.308,277.048 493.5,275.5 Z"/></g>
</svg>
